# 3ds Max Wavefront OBJ Exporter v0.97b - (c)2007 guruware
# File Created: 17.11.2024 20:58:13

mtllib baroque_table_mirror.mtl

#
# object MIRROR
#

v  -0.7734 10.2515 0.1591
v  0.0062 10.2515 0.1591
v  0.0062 11.4571 0.1591
v  -0.7734 11.2172 0.1591
v  -1.6364 10.8703 0.1591
v  -1.6364 10.2515 0.1591
v  -2.2896 10.7912 0.1591
v  -2.5524 10.2406 0.1591
v  -2.3491 9.4414 0.1591
v  -1.6364 9.4272 0.1591
v  -0.7734 9.4272 0.1591
v  0.0062 9.4272 0.1591
v  0.0062 8.7114 0.1591
v  -0.7734 8.7114 0.1591
v  -0.7734 7.9274 0.1591
v  0.0062 7.9274 0.1591
v  -1.6364 8.7114 0.1591
v  -2.2015 8.7067 0.1591
v  0.0062 6.1206 0.1591
v  -0.7734 6.1206 0.1591
v  -0.7734 5.5784 0.1591
v  0.0062 5.5784 0.1591
v  -1.6364 7.3509 0.1591
v  -0.7734 7.3509 0.1591
v  -1.6364 7.9274 0.1591
v  -2.1324 7.3509 0.1591
v  -2.1218 7.9274 0.1591
v  -0.7734 4.8562 0.1591
v  0.0062 4.8973 0.1591
v  -1.6364 4.8435 0.1591
v  -1.6364 5.5784 0.1591
v  -2.1195 5.1126 0.1591
v  -2.2747 5.5784 0.1591
v  0.0062 11.4993 0.1591
v  -0.7734 11.2525 0.1591
v  -0.7734 4.8273 0.1591
v  0.0062 4.8726 0.1591
v  -1.6351 4.8178 0.1591
v  -2.1281 5.0987 0.1591
v  -1.6364 10.9126 0.1591
v  -2.3032 10.8253 0.1591
v  -2.5851 10.2446 0.1591
v  -2.3818 9.4454 0.1591
v  -2.2342 8.7107 0.1591
v  -2.1545 7.9315 0.1591
v  -2.1651 7.3510 0.1591
v  0.0062 7.3509 0.1591
v  -0.7734 6.7462 0.1591
v  0.0062 6.7462 0.1591
v  -2.3074 5.5667 0.1591
v  -1.6364 6.1206 0.1591
v  -1.6364 6.7462 0.1591
v  -2.2496 6.1206 0.1591
v  -2.1725 6.7462 0.1591
v  -2.2053 6.7423 0.1591
v  -2.2823 6.1125 0.1591
v  0.0062 11.5157 0.1591
v  -0.7734 11.2689 0.1591
v  -1.6364 10.9290 0.1591
v  -2.3169 10.8417 0.1591
v  -2.6079 10.2405 0.1591
v  -2.4046 9.4413 0.1591
v  -2.2570 8.7066 0.1591
v  -2.1773 7.9273 0.1591
v  -2.1879 7.3469 0.1591
v  -2.2281 6.7382 0.1591
v  0.7858 10.2515 0.1591
v  0.7858 11.2172 0.1591
v  1.6487 10.2515 0.1591
v  1.6487 10.8703 0.1591
v  2.5648 10.2406 0.1591
v  2.3020 10.7912 0.1591
v  2.3615 9.4414 0.1591
v  1.6487 9.4272 0.1591
v  0.7858 9.4272 0.1591
v  0.7858 7.9274 0.1591
v  0.7858 8.7114 0.1591
v  1.6487 8.7114 0.1591
v  2.2139 8.7067 0.1591
v  0.7858 5.5784 0.1591
v  0.7858 6.1206 0.1591
v  1.6487 7.3509 0.1591
v  1.6487 7.9274 0.1591
v  0.7858 7.3509 0.1591
v  2.1447 7.3509 0.1591
v  2.1342 7.9274 0.1591
v  0.7858 4.8562 0.1591
v  1.6487 4.8435 0.1591
v  1.6487 5.5784 0.1591
v  2.1319 5.1126 0.1591
v  2.2871 5.5784 0.1591
v  0.7858 11.2525 0.1591
v  0.7858 4.8273 0.1591
v  1.6475 4.8178 0.1591
v  2.1405 5.0987 0.1591
v  1.6487 10.9126 0.1591
v  2.3156 10.8253 0.1591
v  2.5975 10.2446 0.1591
v  2.3942 9.4454 0.1591
v  2.2466 8.7107 0.1591
v  2.1775 7.3510 0.1591
v  2.1669 7.9315 0.1591
v  0.7858 6.7462 0.1591
v  2.3198 5.5667 0.1591
v  1.6487 6.1206 0.1591
v  1.6487 6.7462 0.1591
v  2.2620 6.1206 0.1591
v  2.1849 6.7462 0.1591
v  2.2947 6.1125 0.1591
v  2.2177 6.7423 0.1591
v  0.7858 11.2689 0.1591
v  1.6487 10.9290 0.1591
v  2.3293 10.8417 0.1591
v  2.6203 10.2405 0.1591
v  2.4170 9.4413 0.1591
v  2.2694 8.7066 0.1591
v  2.1897 7.9273 0.1591
v  2.2003 7.3469 0.1591
v  2.2405 6.7382 0.1591
# 119 vertices

vn 0.0000 0.0000 1.0000
# 1 vertex normals

vt 0.0000 0.0000 0.0000
# 1 texture coords

o MIRROR
g MIRROR
usemtl 1D_MIRROR
s off
f 1/1/1 2/1/1 3/1/1 
f 3/1/1 4/1/1 1/1/1 
f 1/1/1 4/1/1 5/1/1 
f 5/1/1 6/1/1 1/1/1 
f 6/1/1 5/1/1 7/1/1 
f 7/1/1 8/1/1 6/1/1 
f 9/1/1 10/1/1 6/1/1 
f 6/1/1 8/1/1 9/1/1 
f 2/1/1 1/1/1 11/1/1 
f 11/1/1 12/1/1 2/1/1 
f 10/1/1 11/1/1 1/1/1 
f 1/1/1 6/1/1 10/1/1 
f 13/1/1 14/1/1 15/1/1 
f 15/1/1 16/1/1 13/1/1 
f 17/1/1 14/1/1 11/1/1 
f 11/1/1 10/1/1 17/1/1 
f 18/1/1 17/1/1 10/1/1 
f 10/1/1 9/1/1 18/1/1 
f 19/1/1 20/1/1 21/1/1 
f 21/1/1 22/1/1 19/1/1 
f 23/1/1 24/1/1 15/1/1 
f 15/1/1 25/1/1 23/1/1 
f 26/1/1 23/1/1 25/1/1 
f 25/1/1 27/1/1 26/1/1 
f 22/1/1 21/1/1 28/1/1 
f 28/1/1 29/1/1 22/1/1 
f 30/1/1 28/1/1 21/1/1 
f 21/1/1 31/1/1 30/1/1 
f 32/1/1 30/1/1 31/1/1 
f 31/1/1 33/1/1 32/1/1 
f 4/1/1 3/1/1 34/1/1 
f 34/1/1 35/1/1 4/1/1 
f 29/1/1 28/1/1 36/1/1 
f 36/1/1 37/1/1 29/1/1 
f 38/1/1 36/1/1 28/1/1 
f 28/1/1 30/1/1 38/1/1 
f 39/1/1 38/1/1 30/1/1 
f 30/1/1 32/1/1 39/1/1 
f 5/1/1 4/1/1 35/1/1 
f 35/1/1 40/1/1 5/1/1 
f 7/1/1 5/1/1 40/1/1 
f 40/1/1 41/1/1 7/1/1 
f 8/1/1 7/1/1 41/1/1 
f 41/1/1 42/1/1 8/1/1 
f 9/1/1 8/1/1 42/1/1 
f 42/1/1 43/1/1 9/1/1 
f 18/1/1 9/1/1 43/1/1 
f 43/1/1 44/1/1 18/1/1 
f 26/1/1 27/1/1 45/1/1 
f 45/1/1 46/1/1 26/1/1 
f 47/1/1 24/1/1 48/1/1 
f 48/1/1 49/1/1 47/1/1 
f 32/1/1 33/1/1 50/1/1 
f 50/1/1 39/1/1 32/1/1 
f 51/1/1 20/1/1 48/1/1 
f 48/1/1 52/1/1 51/1/1 
f 53/1/1 51/1/1 52/1/1 
f 52/1/1 54/1/1 53/1/1 
f 53/1/1 54/1/1 55/1/1 
f 55/1/1 56/1/1 53/1/1 
f 25/1/1 15/1/1 14/1/1 
f 14/1/1 17/1/1 25/1/1 
f 16/1/1 15/1/1 24/1/1 
f 24/1/1 47/1/1 16/1/1 
f 54/1/1 52/1/1 23/1/1 
f 23/1/1 26/1/1 54/1/1 
f 27/1/1 25/1/1 17/1/1 
f 17/1/1 18/1/1 27/1/1 
f 12/1/1 11/1/1 14/1/1 
f 14/1/1 13/1/1 12/1/1 
f 27/1/1 18/1/1 44/1/1 
f 44/1/1 45/1/1 27/1/1 
f 54/1/1 26/1/1 46/1/1 
f 46/1/1 55/1/1 54/1/1 
f 52/1/1 48/1/1 24/1/1 
f 24/1/1 23/1/1 52/1/1 
f 33/1/1 31/1/1 51/1/1 
f 51/1/1 53/1/1 33/1/1 
f 49/1/1 48/1/1 20/1/1 
f 20/1/1 19/1/1 49/1/1 
f 31/1/1 21/1/1 20/1/1 
f 20/1/1 51/1/1 31/1/1 
f 33/1/1 53/1/1 56/1/1 
f 56/1/1 50/1/1 33/1/1 
f 35/1/1 34/1/1 57/1/1 
f 57/1/1 58/1/1 35/1/1 
f 40/1/1 35/1/1 58/1/1 
f 58/1/1 59/1/1 40/1/1 
f 41/1/1 40/1/1 59/1/1 
f 59/1/1 60/1/1 41/1/1 
f 42/1/1 41/1/1 60/1/1 
f 60/1/1 61/1/1 42/1/1 
f 43/1/1 42/1/1 61/1/1 
f 61/1/1 62/1/1 43/1/1 
f 44/1/1 43/1/1 62/1/1 
f 62/1/1 63/1/1 44/1/1 
f 45/1/1 44/1/1 63/1/1 
f 63/1/1 64/1/1 45/1/1 
f 46/1/1 45/1/1 64/1/1 
f 64/1/1 65/1/1 46/1/1 
f 55/1/1 46/1/1 65/1/1 
f 65/1/1 66/1/1 55/1/1 
f 67/1/1 68/1/1 3/1/1 
f 3/1/1 2/1/1 67/1/1 
f 67/1/1 69/1/1 70/1/1 
f 70/1/1 68/1/1 67/1/1 
f 69/1/1 71/1/1 72/1/1 
f 72/1/1 70/1/1 69/1/1 
f 73/1/1 71/1/1 69/1/1 
f 69/1/1 74/1/1 73/1/1 
f 2/1/1 12/1/1 75/1/1 
f 75/1/1 67/1/1 2/1/1 
f 74/1/1 69/1/1 67/1/1 
f 67/1/1 75/1/1 74/1/1 
f 13/1/1 16/1/1 76/1/1 
f 76/1/1 77/1/1 13/1/1 
f 78/1/1 74/1/1 75/1/1 
f 75/1/1 77/1/1 78/1/1 
f 79/1/1 73/1/1 74/1/1 
f 74/1/1 78/1/1 79/1/1 
f 19/1/1 22/1/1 80/1/1 
f 80/1/1 81/1/1 19/1/1 
f 82/1/1 83/1/1 76/1/1 
f 76/1/1 84/1/1 82/1/1 
f 85/1/1 86/1/1 83/1/1 
f 83/1/1 82/1/1 85/1/1 
f 22/1/1 29/1/1 87/1/1 
f 87/1/1 80/1/1 22/1/1 
f 88/1/1 89/1/1 80/1/1 
f 80/1/1 87/1/1 88/1/1 
f 90/1/1 91/1/1 89/1/1 
f 89/1/1 88/1/1 90/1/1 
f 68/1/1 92/1/1 34/1/1 
f 34/1/1 3/1/1 68/1/1 
f 29/1/1 37/1/1 93/1/1 
f 93/1/1 87/1/1 29/1/1 
f 94/1/1 88/1/1 87/1/1 
f 87/1/1 93/1/1 94/1/1 
f 95/1/1 90/1/1 88/1/1 
f 88/1/1 94/1/1 95/1/1 
f 70/1/1 96/1/1 92/1/1 
f 92/1/1 68/1/1 70/1/1 
f 72/1/1 97/1/1 96/1/1 
f 96/1/1 70/1/1 72/1/1 
f 71/1/1 98/1/1 97/1/1 
f 97/1/1 72/1/1 71/1/1 
f 73/1/1 99/1/1 98/1/1 
f 98/1/1 71/1/1 73/1/1 
f 79/1/1 100/1/1 99/1/1 
f 99/1/1 73/1/1 79/1/1 
f 85/1/1 101/1/1 102/1/1 
f 102/1/1 86/1/1 85/1/1 
f 47/1/1 49/1/1 103/1/1 
f 103/1/1 84/1/1 47/1/1 
f 90/1/1 95/1/1 104/1/1 
f 104/1/1 91/1/1 90/1/1 
f 105/1/1 106/1/1 103/1/1 
f 103/1/1 81/1/1 105/1/1 
f 107/1/1 108/1/1 106/1/1 
f 106/1/1 105/1/1 107/1/1 
f 107/1/1 109/1/1 110/1/1 
f 110/1/1 108/1/1 107/1/1 
f 83/1/1 78/1/1 77/1/1 
f 77/1/1 76/1/1 83/1/1 
f 16/1/1 47/1/1 84/1/1 
f 84/1/1 76/1/1 16/1/1 
f 108/1/1 85/1/1 82/1/1 
f 82/1/1 106/1/1 108/1/1 
f 86/1/1 79/1/1 78/1/1 
f 78/1/1 83/1/1 86/1/1 
f 12/1/1 13/1/1 77/1/1 
f 77/1/1 75/1/1 12/1/1 
f 86/1/1 102/1/1 100/1/1 
f 100/1/1 79/1/1 86/1/1 
f 108/1/1 110/1/1 101/1/1 
f 101/1/1 85/1/1 108/1/1 
f 106/1/1 82/1/1 84/1/1 
f 84/1/1 103/1/1 106/1/1 
f 91/1/1 107/1/1 105/1/1 
f 105/1/1 89/1/1 91/1/1 
f 49/1/1 19/1/1 81/1/1 
f 81/1/1 103/1/1 49/1/1 
f 89/1/1 105/1/1 81/1/1 
f 81/1/1 80/1/1 89/1/1 
f 91/1/1 104/1/1 109/1/1 
f 109/1/1 107/1/1 91/1/1 
f 92/1/1 111/1/1 57/1/1 
f 57/1/1 34/1/1 92/1/1 
f 96/1/1 112/1/1 111/1/1 
f 111/1/1 92/1/1 96/1/1 
f 97/1/1 113/1/1 112/1/1 
f 112/1/1 96/1/1 97/1/1 
f 98/1/1 114/1/1 113/1/1 
f 113/1/1 97/1/1 98/1/1 
f 99/1/1 115/1/1 114/1/1 
f 114/1/1 98/1/1 99/1/1 
f 100/1/1 116/1/1 115/1/1 
f 115/1/1 99/1/1 100/1/1 
f 102/1/1 117/1/1 116/1/1 
f 116/1/1 100/1/1 102/1/1 
f 101/1/1 118/1/1 117/1/1 
f 117/1/1 102/1/1 101/1/1 
f 110/1/1 119/1/1 118/1/1 
f 118/1/1 101/1/1 110/1/1 
# 204 faces

